# xmcd
#
# Track frame offsets: 
#        150
#        13798
#        26228
#        38930
#        52930
#        65899
#        77729
#        90402
#        104539
#        116674
#        128890
#        139759
#        153902
#        166503
#        178779
#        190566
#        203585
#        218454
#        230157
#        251542
#        261955
#        273280
#        286080
#        299221
#        310783
#        322696
#        336958
#
# Disc length: 4655 seconds
#
# Revision: 3
# Processed by: cddbd v1.5.2PL0 Copyright (c) Steve Scherf et al.
# Submitted via: ExactAudioCopyFreeDBPlugin 1.0
#
DISCID=82122d1b
DTITLE=Various Artist - Jumping the Shuffle Blues:  Jamaican Sound Sy
DTITLE=stem Classics, 1946-1960
DYEAR=2011
DGENRE=Rhythm and Blues
TTITLE0=Louis Jordan and His Tympany Five - Salt Pork, West Virginia
TTITLE1=Louis Jordan and His Tympany Five - Reet Petite And Gone
TTITLE2=Jack McVea and His Orchestra - Two Timin' Baby
TTITLE3=Felix Gross - What's Your Style, Baby
TTITLE4=Gene Coy and His Killer Dillers - Killer Diller
TTITLE5=Gene Phillips and His Rhythm Aces - Rock Bottom
TTITLE6=Joe Liggins and His Honeydrippers - Drippers' Boogie (Parts 1 and 
TTITLE6=2)
TTITLE7=Gene Ammons and His Orchestra - Jug Head Ramble
TTITLE8=King Perry and His Sextet - Goin' to California Blues
TTITLE9=Todd Rhodes and His Toddlers - Page Boy Shuffle
TTITLE10=Calvin Boze and His All Stars - Safronia B
TTITLE11=Eddie Chamblee and His Orchestra - Every Shut Eye Ain't Sleep (
TTITLE11=aka "Learn")
TTITLE12=The Griffin Brothers - Riffin' with Griffin
TTITLE13=The Harold Land All Stars - San Diego Bounce
TTITLE14=Jewel King - 3 x 7 =21
TTITLE15=Joe Liggins and His Honeydrippers - Little Joe's Boogie
TTITLE16=Teddy Brannon and His Orchestra - Mixon with Dixon
TTITLE17=T-Bone Walker - The Hustle is On
TTITLE18=Archibald - Stack-A-Lee (Parts 1 and 2)
TTITLE19=The Ray-O-Vacs - My Baby's Gone
TTITLE20=Charlie Gonzalez - I'm Free
TTITLE21=The Griffin Brothers featuring Margie Day - Stubborn as a Mul
TTITLE21=e
TTITLE22=Jackie Brenston and His Delta Cats - Independent Woman
TTITLE23=James Wayne - Tend to Your Business
TTITLE24=Jimmy McCracklin and His Blues Blasters - Looking for a Woman
TTITLE25=Margie Day and The Griffin Brothers Orchestra - Bonaparte's Ret
TTITLE25=reat
TTITLE26=Willis Jackson and His Orchestra - Later for the 'Gator
EXTD=
EXTT0=
EXTT1=
EXTT2=
EXTT3=
EXTT4=
EXTT5=
EXTT6=
EXTT7=
EXTT8=
EXTT9=
EXTT10=
EXTT11=
EXTT12=
EXTT13=
EXTT14=
EXTT15=
EXTT16=
EXTT17=
EXTT18=
EXTT19=
EXTT20=
EXTT21=
EXTT22=
EXTT23=
EXTT24=
EXTT25=
EXTT26=
PLAYORDER=
